<svg height="16" viewBox="0 0 19 16" width="19" xmlns="http://www.w3.org/2000/svg"><path d="M6.1472 2.97786v12.3841c0 .15756-.04622.29936-.13866.42541-.09244.12605-.2157.18907-.36976.18907-.09244 0-.20028-.03151-.32354-.09454L.50842 13.424c-.15407-.06303-.27732-.17332-.36976-.33088C.04622 12.93556 0 12.778 0 12.62044V.56721C0 .44116.03081.31511.09244.18907.15406.06302.2619.01576.41598.04727c.09244 0 .2465.06302.4622.18907L6.1472 2.93059v.04727zM6.84049 4.065l5.50012 9.12264-5.50012-2.83605V4.065zm11.64731.18907v11.10788c0 .15756-.04621.29936-.13865.42541s-.2311.17331-.41598.1418c-.18488-.0315-.33894-.07878-.4622-.1418l-4.57573-2.31611 5.59256-9.21718zm-.04621-1.27622l-2.63452 4.39588c-1.75634 2.9306-2.78857 4.64798-3.0967 5.15217l-4.0211-6.66473L12.01707.2836C12.14032.09454 12.3252 0 12.57171 0c.09244 0 .18487.01576.27731.04727l5.54635 2.83605c.0308.03151.04622.06303.04622.09454z" fill-rule="nonzero"></path></svg>
