<svg width="21" height="20" viewBox="0 0 21 20" xmlns="http://www.w3.org/2000/svg">
  <path d="M20.4878 9.91746c0 .45397-.1195.85556-.35853 1.20476-.23903.3492-.52927.64603-.87073.89048.06829.3492.10244.71587.10244 1.1 0 1.22222-.39269 2.33968-1.17805 3.35238-.78537 1.0127-1.89512 1.83333-3.32927 2.4619-1.43415.62858-2.97073.9254-4.60976.89048-1.63902-.03492-3.15853-.33175-4.55853-.89048-1.4-.55873-2.49269-1.37936-3.27805-2.4619-.78537-1.08254-1.19513-2.2-1.22927-3.35238 0-.38413.03414-.7508.10244-1.1-.37561-.20953-.68293-.4889-.92195-.8381C.1195 10.8254 0 10.40635 0 9.91746c0-.62857.22195-1.1873.66585-1.67619.4439-.48889.97317-.71587 1.5878-.68095.64879 0 1.2122.24444 1.69025.73333C5.58293 7.14127 7.54634 6.5127 9.83415 6.40794l1.3317-6.0762c0-.10476.05122-.19206.15366-.2619.10244-.06984.20488-.0873.30732-.05238l4.2.94286c.13659-.27937.34146-.50635.61463-.68095.27317-.1746.5805-.26191.92196-.26191.47804 0 .8878.1746 1.22926.52381.34147.3492.49513.7508.46098 1.20476-.03415.45397-.1878.87302-.46098 1.25714-.27317.38413-.68292.55873-1.22926.52381-.54635-.03492-.9561-.20952-1.22927-.5238-.27317-.3143-.42683-.73334-.46098-1.25715l-3.84146-.8381-1.17805 5.5c2.2878.06985 4.2683.69842 5.94146 1.88572.4439-.48889.99025-.73333 1.63903-.73333.61463 0 1.1439.22698 1.5878.68095.4439.45397.66585 1.0127.66585 1.67619zM4.76342 12.22222c0 .4889.17073.90794.51219 1.25715.34146.3492.75122.5238 1.22927.5238.47805 0 .87073-.1746 1.17805-.5238.30731-.34921.47805-.76826.5122-1.25715.03414-.48889-.1366-.89047-.5122-1.20476-.37561-.31429-.7683-.48889-1.17805-.5238-.47805 0-.8878.1746-1.22927.5238-.34146.3492-.5122.7508-.5122 1.20476zm9.27073 4.19048c.10243-.10476.15366-.20953.15366-.31429 0-.10476-.05123-.20952-.15366-.31428-.0683-.06984-.15366-.10476-.2561-.10476s-.20488.03492-.30732.10476c-.30732.31428-.7683.55873-1.38292.73333-.61464.1746-1.22927.24444-1.8439.20952-.61464-.03492-1.22928-.10476-1.84391-.20952s-1.07561-.3492-1.38293-.73333c-.06829-.06984-.15365-.10476-.2561-.10476-.10243 0-.20487.03492-.30731.10476-.10244.06984-.15366.1746-.15366.31428 0 .13969.05122.24445.15366.31429.34146.31428.78536.57619 1.3317.78571.54635.20953 1.0244.31429 1.43415.31429.40976 0 .75122.01746 1.0244.05238.27316.03492.61463.01746 1.02438-.05238.40976-.06984.8878-.1746 1.43415-.31429.54634-.13968.99024-.41904 1.3317-.8381v.05239zm-.05122-2.40953c.47805 0 .8878-.1746 1.22926-.5238.34147-.34921.5122-.76826.5122-1.25715 0-.45397-.17073-.85555-.5122-1.20476-.34146-.3492-.75121-.5238-1.22926-.5238-.4439 0-.83659.1746-1.17805.5238-.34146.3492-.5122.7508-.5122 1.20476 0 .45397.17074.87302.5122 1.25715.34146.38412.73414.55873 1.17805.5238z" fill-rule="nonzero"/>
</svg>
