<svg width="20" height="20" viewBox="0 0 20 20" xmlns="http://www.w3.org/2000/svg">
  <path d="M19.1958.4006c.22736.19.3248.4275.29232.7125l-2.77706 16.2925c-.03248.19-.14616.34833-.34104.475-.12992.03166-.2436.0475-.34104.0475s-.19488-.01584-.29233-.0475l-4.92074-1.9475-2.6309 3.135c-.12992.15833-.30856.2375-.53592.2375-.09744 0-.17865-.01584-.2436-.0475-.12993-.03167-.2436-.11084-.34105-.2375-.09744-.12667-.12992-.25334-.09744-.38v-3.705l9.40302-11.2575-11.64415 9.8325-4.28739-1.71c-.25984-.095-.406-.30084-.43848-.6175 0-.25334.11368-.45917.34104-.6175L18.465.4006c.09744-.06334.21112-.095.34104-.095s.25984.03166.38977.095z" fill-rule="evenodd"/>
</svg>
