<svg width="18" height="16" viewBox="0 0 18 16" xmlns="http://www.w3.org/2000/svg">
  <path d="M18.02927 2.72859c-.5122.76825-1.1439 1.41428-1.89512 1.93809.03414.10476.05122.27937.05122.52381 0 1.0127-.15366 2.0254-.46098 3.0381-.30732 1.0127-.75122 1.97301-1.3317 2.88095-.5805.90793-1.2805 1.72857-2.1 2.4619-.81952.73334-1.79269 1.30953-2.91952 1.72857-1.12683.41905-2.3561.62858-3.6878.62858-2.08293 0-3.97805-.5762-5.68537-1.72858.27317.03492.56341.05238.87073.05238 1.70732 0 3.2439-.5238 4.60976-1.57142-.81951-.03492-1.53659-.29683-2.15122-.78572-.61464-.48889-1.05854-1.1-1.3317-1.83333.27316.03492.51219.05238.71706.05238.34147 0 .66586-.05238.97317-.15714-.85365-.1746-1.55365-.61111-2.1-1.30953-.54634-.69841-.83658-1.50158-.87073-2.40952.5122.27936 1.07561.4365 1.69025.47143-.5122-.3492-.92195-.80318-1.22927-1.3619C.87073 4.7889.73415 4.19524.76829 3.56667c0-.69841.15366-1.34444.46098-1.9381.92195 1.1873 2.04878 2.13016 3.38049 2.82858 1.3317.6984 2.74878 1.08254 4.25122 1.15238-.0683-.31429-.10244-.61111-.10244-.89048 0-1.04762.35853-1.9381 1.0756-2.67143.71708-.73333 1.58781-1.1 2.6122-1.1 1.09268 0 1.99756.40159 2.71464 1.20476.8195-.1746 1.60487-.47142 2.3561-.89047-.27318.87301-.81952 1.55397-1.63903 2.04286.71707-.06985 1.43414-.2619 2.15122-.5762z" fill-rule="evenodd"/>
</svg>
