<svg width="21" height="12" viewBox="0 0 21 12" xmlns="http://www.w3.org/2000/svg">
  <path d="M20.38537.89048c.17073.45396-.35854 1.51904-1.5878 3.19523-.17074.24445-.40977.55873-.71708.94286-.54634.69841-.85366 1.16984-.92195 1.41429-.13659.27936-.08537.57619.15365.89047.10244.13969.37562.43651.81952.89048h.05122c1.02439.97778 1.70731 1.78095 2.04878 2.40952.03414.03492.05122.0873.05122.15715 0 .06984.03414.15714.10244.2619.06829.10476.06829.24445 0 .41905-.0683.1746-.15366.2619-.2561.2619s-.3244.05238-.66585.15715l-2.71464.05238c-.17073.03492-.35854.01746-.56341-.05238-.20488-.06985-.39269-.15715-.56342-.2619l-.20488-.10477c-.23902-.1746-.49512-.41905-.76829-.73333-.27317-.31429-.5122-.59365-.71707-.8381-.20488-.24444-.42683-.45397-.66586-.62857-.23902-.1746-.42683-.22698-.56341-.15714-.03415 0-.0683.01746-.10244.05238-.03415.03492-.10244.0873-.20488.15714s-.17073.1746-.20488.31429c-.03414.13968-.10243.33174-.20487.57619-.10244.24444-.11952.5238-.05122.8381 0 .10475-.01708.19206-.05122.2619-.03415.06984-.05122.13968-.05122.20952l-.05122.05238c-.13659.13968-.3244.22699-.56342.2619H9.9878c-.51219.03493-1.02439-.03491-1.53658-.20952-.5122-.1746-.99024-.36666-1.43415-.57619-.4439-.20952-.80244-.4365-1.0756-.68095-.27318-.24444-.52928-.45397-.7683-.62857l-.2561-.2619-.30731-.3143c-.13659-.13967-.37561-.47142-.71708-.99523C3.55122 7.7 3.17561 7.14127 2.76585 6.5476c-.40975-.59364-.85366-1.3619-1.3317-2.30475C.9561 3.3.49512 2.32222.05122 1.30952.01707 1.20476 0 1.1 0 .99524V.8381L.05122.7857C.15366.64603.35854.5762.66585.5762L3.58537.52381c.06829.03492.15365.06984.2561.10476.10243.03492.15365.06984.15365.10476h.05122c.10244.06984.1878.19207.2561.36667.13658.3492.30732.71587.5122 1.1.20487.38413.34146.68095.40975.89048l.15366.31428c.20488.45397.40975.8381.61463 1.15238.20488.31429.37561.55873.5122.73334.13658.1746.29024.31428.46097.41904.17074.10477.29025.15715.35854.15715.0683 0 .15366-.01746.2561-.05238.03414 0 .05122-.01746.05122-.05239 0-.03492.05122-.12222.15366-.2619.10244-.13968.15365-.29683.15365-.47143 0-.1746.03415-.47143.10244-.89047.0683-.41905.0683-.87302 0-1.36191-.03414-.31429-.06829-.57619-.10244-.78571-.03414-.20953-.08536-.38413-.15365-.52381l-.05122-.10477c-.17073-.24444-.47805-.40158-.92196-.47142-.10243-.03492-.08536-.12223.05122-.2619C7 .48887 7.1366.36666 7.27317.2619 7.64878.0873 8.50244 0 9.83415 0c.58048.03492 1.05853.0873 1.43414.15714.13659.03492.2561.0873.35854.15715.10244.06984.17073.15714.20488.2619.03414.10476.06829.22698.10244.36667.03414.13968.05122.29682.05122.47143v.57619c0 .20952-.01708.47142-.05122.78571-.03415.31429-.03415.61111 0 .89048v.47143c0 .20952-.01708.38412-.05122.5238-.03415.13969-.01708.27937.05122.41905.06829.13968.1195.27937.15366.41905.03414.13968.10243.24444.20487.31429h.20488c.0683 0 .15366-.03492.2561-.10477.10244-.06984.23902-.19206.40975-.36666.17074-.1746.35854-.41905.56342-.73334.20488-.31428.4439-.6984.71707-1.15238.40976-.76825.78537-1.58889 1.12683-2.4619l.10244-.20953c.03415-.06984.08537-.10476.15366-.10476l.05122-.05238.15366-.05238h3.27805c.27317-.03492.49512-.03492.66585 0 .17073.03492.29024.10476.35854.20952l.05122.10477z" fill-rule="evenodd"/>
</svg>
