<svg
  class="header__logo-svg"
  xmlns="http://www.w3.org/2000/svg"
  width="120"
  height="26"
  viewBox="0 0 120 26"
  fill="none"
>
  <path
    class="header__logo-svg-ico"
    d="M113.745.968l-6.254 6.161 6.254 6.16L120 7.13 113.745.968z"
    fill="#05F"
  />
  <g class="header__logo-svg-letters-group">
    <path
      d="M27.94 7.132h-3.524l-.37.318-3.615 12.23h-.023L16.354 7.45l-.369-.318H12.3l-.369.318-4.03 12.161-.07-.045-.023-.023L4.192 7.45l-.368-.318H.23L0 7.45 5.643 24.67l.392.34h3.547l.391-.34 4.031-12.32h.093l4.053 12.32.392.34h3.593l.392-.34L28.17 7.45l-.23-.318z"
      fill="#fff"
    />
    <path
      d="M67.81 7.132h-3.546l-.392.318-4.952 12.729-.046.022L53.968 7.45l-.392-.318H49.96l-.23.318L56.8 24.67l.415.34h3.271l.415-.34L68.04 7.45l-.23-.318z"
      fill="#fff"
    />
    <path
      d="M86.099 17.025l.345-.318v-.522c0-2.79-.806-5.196-2.395-6.875-1.59-1.679-3.732-2.541-6.357-2.541-2.534 0-4.653.93-6.288 2.745-1.636 1.816-2.442 4.017-2.442 6.512 0 2.655.852 4.879 2.534 6.626 1.681 1.747 3.892 2.632 6.564 2.632 1.935 0 3.593-.454 4.93-1.384 1.335-.908 2.74-2.405 3.224-4.447l-.253-.34h-3.317l-.46.34c-.83 1.633-2.097 2.405-4.193 2.405-1.359 0-2.58-.477-3.593-1.407-.968-.885-1.52-1.951-1.659-3.472l13.36.046zm-13.13-3.177c.577-2.11 2.373-3.676 4.723-3.676 3.11 0 4.399 2.179 4.768 3.676h-9.49z"
      fill="#fff"
    />
    <path
      d="M43.97 7.132l-.345.34v1.77l-.069.068c-.46-.59-1.082-1.112-1.82-1.543-.16-.09-.345-.181-.53-.272-.99-.477-2.119-.703-3.34-.703-2.28 0-4.283.907-5.942 2.677-1.658 1.77-2.488 3.993-2.488 6.603s.83 4.833 2.488 6.603c1.659 1.77 3.663 2.677 5.943 2.677 1.22 0 2.326-.227 3.317-.703.184-.091.391-.182.575-.295.715-.431 1.313-.908 1.774-1.475.023-.023.092.022.115 0v1.838l.346.34h3.017l.345-.34V7.45l-.345-.34-3.04.022zm-1.865 13.205c-1.014 1.067-2.234 1.589-3.708 1.589-1.428 0-2.488-.522-3.525-1.611-1.036-1.067-1.543-2.496-1.543-4.289 0-1.77.53-3.199 1.543-4.288 1.037-1.066 2.073-1.611 3.525-1.611 1.45 0 2.671.522 3.708 1.588.668.704 1.106 1.543 1.359 2.564v3.45c-.23 1.066-.691 1.928-1.36 2.608z"
      fill="#fff"
    />
    <path
      d="M98.883 14.665s-1.981-.408-3.617-.771c-1.497-.34-2.257-.772-2.257-1.816 0-1.111 1.083-2.042 3.41-2.042 2.28 0 3.546.999 3.546 1.883l.392.34h3.317l.253-.317c0-2.337-2.05-5.128-7.417-5.128-5.597 0-7.347 3.245-7.347 5.332 0 1.748.645 3.812 4.929 4.788l3.685.817c1.866.408 2.649 1.044 2.649 2.11 0 .976-.99 2.156-3.57 2.156-2.396 0-3.847-1.135-3.916-2.474l-.415-.34H89.14l-.254.34c.3 2.995 2.557 5.809 7.947 5.809 6.104 0 7.347-3.676 7.347-5.604 0-2.587-1.497-4.266-5.297-5.083z"
      fill="#fff"
    />
  </g>
</svg>
