<svg width="19" height="14" viewBox="0 0 19 14" xmlns="http://www.w3.org/2000/svg">
  <path d="M14 6.99483c0-.24839-.11422-.43467-.34266-.55887l-5.58042-3.3066c-.22844-.15523-.47319-.17076-.73426-.04657C7.11422 3.207 7 3.4088 7 3.68823v6.6132c0 .27942.11422.48123.34266.60543.13053.0621.24475.09314.34265.09314.16317 0 .29371-.04657.39161-.13972l5.58042-3.3066C13.88578 7.4295 14 7.24322 14 6.99484zM19 7v1.61538c0 .39161-.03167.89744-.095 1.51749-.06333.62004-.1425 1.1585-.2375 1.61538-.12667.52215-.38.9627-.76 1.32168-.38.35897-.8075.5711-1.2825.63636C15.04167 13.9021 12.66667 14 9.5 14s-5.54167-.0979-7.125-.2937c-.50667-.06527-.95-.2774-1.33-.63637-.38-.35897-.6175-.79953-.7125-1.32168-.095-.4895-.17417-1.02797-.2375-1.61538C.03167 9.54545 0 9.03963 0 8.61538V7 5.38462c0-.42425.03167-.93007.095-1.51749.06333-.58741.1425-1.12587.2375-1.61538.12667-.52215.38-.9627.76-1.32168C1.4725.5711 1.9.35897 2.375.29371 3.95833.0979 6.33333 0 9.5 0s5.54167.0979 7.125.2937c.50667.06527.95.2774 1.33.63637.38.35897.6175.79953.7125 1.32168.095.4895.17417 1.02797.2375 1.61538.06333.58742.095 1.09324.095 1.51749V7z" fill-rule="nonzero"/>
</svg>
