<svg width="73" height="73" viewBox="0 0 73 73" fill="none" xmlns="http://www.w3.org/2000/svg">
  <path d="M44.3869 32.7202C44.0005 32.3256 43.3674 32.3191 42.9728 32.7055C42.5782 33.0919 42.5716 33.725 42.958 34.1196L44.3869 32.7202ZM48.9813 38.8405L49.7063 39.5293C50.077 39.139 50.0723 38.5254 49.6957 38.1408L48.9813 38.8405ZM42.9475 43.74C42.5671 44.1404 42.5833 44.7733 42.9837 45.1537C43.3841 45.5341 44.0171 45.5179 44.3975 45.1175L42.9475 43.74ZM30.6374 34.1196C31.0238 33.725 31.0172 33.0919 30.6227 32.7055C30.2281 32.3191 29.595 32.3256 29.2085 32.7202L30.6374 34.1196ZM24.6142 38.8405L23.8997 38.1408C23.5231 38.5254 23.5184 39.139 23.8892 39.5293L24.6142 38.8405ZM29.198 45.1175C29.5784 45.5179 30.2113 45.5341 30.6117 45.1537C31.0121 44.7733 31.0284 44.1404 30.648 43.74L29.198 45.1175ZM32.7549 44.3368C32.4962 44.8247 32.682 45.43 33.1699 45.6887C33.6578 45.9475 34.2631 45.7617 34.5218 45.2738L32.7549 44.3368ZM40.76 33.5101C41.0188 33.0221 40.833 32.4168 40.3451 32.1581C39.8571 31.8994 39.2518 32.0851 38.9931 32.5731L40.76 33.5101ZM17.1743 19.0342V18.0342H16.1743V19.0342H17.1743ZM56.2471 19.0342H57.2471V18.0342H56.2471V19.0342ZM56.2471 51.743V52.743H57.2471V51.743H56.2471ZM17.1743 51.743H16.1743V52.743H17.1743V51.743ZM36.7575 38.9234L35.874 38.4549L35.874 38.4549L36.7575 38.9234ZM35.1979 41.8643L36.0814 42.3328L36.0814 42.3328L35.1979 41.8643ZM42.958 34.1196L48.2668 39.5402L49.6957 38.1408L44.3869 32.7202L42.958 34.1196ZM48.2563 38.1518L42.9475 43.74L44.3975 45.1175L49.7063 39.5293L48.2563 38.1518ZM29.2085 32.7202L23.8997 38.1408L25.3286 39.5402L30.6374 34.1196L29.2085 32.7202ZM23.8892 39.5293L29.198 45.1175L30.648 43.74L25.3392 38.1518L23.8892 39.5293ZM70.7979 36.3887C70.7979 55.1664 55.5755 70.3887 36.7979 70.3887V72.3887C56.6801 72.3887 72.7979 56.2709 72.7979 36.3887H70.7979ZM36.7979 70.3887C18.0202 70.3887 2.79785 55.1664 2.79785 36.3887H0.797852C0.797852 56.2709 16.9156 72.3887 36.7979 72.3887V70.3887ZM2.79785 36.3887C2.79785 17.611 18.0202 2.38867 36.7979 2.38867V0.388672C16.9156 0.388672 0.797852 16.5064 0.797852 36.3887H2.79785ZM36.7979 2.38867C55.5755 2.38867 70.7979 17.611 70.7979 36.3887H72.7979C72.7979 16.5064 56.6801 0.388672 36.7979 0.388672V2.38867ZM17.1743 20.0342H56.2471V18.0342H17.1743V20.0342ZM55.2471 19.0342V51.743H57.2471V19.0342H55.2471ZM56.2471 50.743H17.1743V52.743H56.2471V50.743ZM18.1743 51.743V19.0342H16.1743V51.743H18.1743ZM17.1742 27.9727H56.2472V25.9727H17.1742V27.9727ZM20.6866 23.19C20.6866 22.9627 20.8709 22.7784 21.0982 22.7784V24.7784C21.9755 24.7784 22.6866 24.0673 22.6866 23.19H20.6866ZM21.0982 22.7784C21.3255 22.7784 21.5098 22.9627 21.5098 23.19H19.5098C19.5098 24.0673 20.2209 24.7784 21.0982 24.7784V22.7784ZM21.5098 23.19C21.5098 23.4173 21.3255 23.6016 21.0982 23.6016V21.6016C20.2209 21.6016 19.5098 22.3127 19.5098 23.19H21.5098ZM21.0982 23.6016C20.8709 23.6016 20.6866 23.4173 20.6866 23.19H22.6866C22.6866 22.3127 21.9755 21.6016 21.0982 21.6016V23.6016ZM25.2703 23.19C25.2703 22.9627 25.4546 22.7784 25.6819 22.7784V24.7784C26.5591 24.7784 27.2703 24.0673 27.2703 23.19H25.2703ZM25.6819 22.7784C25.9092 22.7784 26.0934 22.9627 26.0934 23.19H24.0934C24.0934 24.0673 24.8046 24.7784 25.6819 24.7784V22.7784ZM26.0934 23.19C26.0934 23.4173 25.9092 23.6016 25.6819 23.6016V21.6016C24.8046 21.6016 24.0934 22.3127 24.0934 23.19H26.0934ZM25.6819 23.6016C25.4546 23.6016 25.2703 23.4173 25.2703 23.19H27.2703C27.2703 22.3127 26.5591 21.6016 25.6819 21.6016V23.6016ZM29.8536 23.19C29.8536 22.9627 30.0379 22.7784 30.2652 22.7784V24.7784C31.1424 24.7784 31.8536 24.0673 31.8536 23.19H29.8536ZM30.2652 22.7784C30.4925 22.7784 30.6768 22.9627 30.6768 23.19H28.6768C28.6768 24.0673 29.3879 24.7784 30.2652 24.7784V22.7784ZM30.6768 23.19C30.6768 23.4173 30.4925 23.6016 30.2652 23.6016V21.6016C29.3879 21.6016 28.6768 22.3127 28.6768 23.19H30.6768ZM30.2652 23.6016C30.0379 23.6016 29.8536 23.4173 29.8536 23.19H31.8536C31.8536 22.3127 31.1424 21.6016 30.2652 21.6016V23.6016ZM37.6409 39.3919L40.76 33.5101L38.9931 32.5731L35.874 38.4549L37.6409 39.3919ZM34.5218 45.2738L36.0814 42.3328L34.3145 41.3958L32.7549 44.3368L34.5218 45.2738ZM36.0814 42.3328L37.6409 39.3919L35.874 38.4549L34.3145 41.3958L36.0814 42.3328Z" fill="#1F50C3"/>
</svg>
