<svg width="73" height="73" viewBox="0 0 73 73" fill="none" xmlns="http://www.w3.org/2000/svg">
  <path d="M52.8786 27.793H56.9244V51.6189C56.9244 51.6189 47.5455 50.2395 43.0399 51.6189C40.0055 52.5385 36.1436 55.5063 36.1436 55.5063C36.1436 55.5063 32.2817 52.5385 29.2473 51.6189C24.7417 50.2395 15.3628 51.6189 15.3628 51.6189V27.793H19.4086M36.1432 25.1218V48.7805M71.1436 36.9023C71.1436 56.2323 55.4735 71.9023 36.1436 71.9023C16.8136 71.9023 1.14355 56.2323 1.14355 36.9023C1.14355 17.5724 16.8136 1.90234 36.1436 1.90234C55.4735 1.90234 71.1436 17.5724 71.1436 36.9023ZM42.9478 21.8612C38.6261 22.3628 36.0975 25.1216 36.0975 25.1216C36.0975 25.1216 33.5688 22.321 29.2472 21.8612C24.6496 21.3596 19.9142 21.7776 19.9142 21.7776V45.1855C19.9142 45.1855 27.3162 45.0601 29.3851 45.4781C32.9712 46.2305 36.0975 48.7803 36.0975 48.7803C36.0975 48.7803 39.4077 46.1469 42.8099 45.4781C45.3385 44.9765 52.2808 45.1855 52.2808 45.1855V21.7776C52.2808 21.7776 47.5913 21.3596 42.9478 21.8612Z" stroke="#1F50C3" stroke-width="2" stroke-miterlimit="10"/>
</svg>
