<svg width="71" height="71" viewBox="0 0 71 71" fill="none" xmlns="http://www.w3.org/2000/svg">
  <path fill-rule="evenodd" clip-rule="evenodd" d="M15.9273 16.0312H55.6684V55.7723H15.9273V16.0312ZM17.9273 18.0312V53.7723H53.6684V18.0312H17.9273ZM35.798 22.8688C28.5997 22.8688 22.7643 28.7042 22.7643 35.9025C22.7643 43.1008 28.5997 48.9362 35.798 48.9362C42.9964 48.9362 48.8317 43.1008 48.8317 35.9025C48.8317 28.7042 42.9964 22.8688 35.798 22.8688ZM20.7643 35.9025C20.7643 27.5996 27.4952 20.8688 35.798 20.8688C44.1009 20.8688 50.8317 27.5996 50.8317 35.9025C50.8317 44.2054 44.1009 50.9362 35.798 50.9362C27.4952 50.9362 20.7643 44.2054 20.7643 35.9025Z" fill="#1F50C3"/>
  <path fill-rule="evenodd" clip-rule="evenodd" d="M35.7979 68.9023C54.0232 68.9023 68.7979 54.1277 68.7979 35.9023C68.7979 17.6769 54.0232 2.90234 35.7979 2.90234C17.5725 2.90234 2.79785 17.6769 2.79785 35.9023C2.79785 54.1277 17.5725 68.9023 35.7979 68.9023ZM35.7979 70.9023C55.1278 70.9023 70.7979 55.2323 70.7979 35.9023C70.7979 16.5724 55.1278 0.902344 35.7979 0.902344C16.4679 0.902344 0.797852 16.5724 0.797852 35.9023C0.797852 55.2323 16.4679 70.9023 35.7979 70.9023Z" fill="#1F50C3"/>
</svg>
