<svg width="71" height="71" viewBox="0 0 71 71" fill="none" xmlns="http://www.w3.org/2000/svg">
  <circle cx="35.1436" cy="35.3887" r="34" stroke="#1F50C3" stroke-width="2"/>
  <path d="M56.2521 38.6688V31.9088L48.7425 30.3182C48.5395 29.9206 48.3365 29.523 48.1336 29.1253L52.1929 22.5642L47.3217 17.9913L40.6239 22.3654C40.4209 22.3654 40.4209 22.3654 40.218 22.1666L38.5943 14.6113H31.6935L30.0698 22.3654H29.8668L22.9661 17.9913L17.892 22.5642L22.3572 29.523C22.2186 29.7633 22.1358 29.9205 21.9512 30.1194L14.0356 31.9088V38.6688L21.7483 40.4582L22.1542 41.2534L18.0949 48.0134L22.9661 52.5863L29.4609 48.411C29.6639 48.411 29.8858 48.5177 30.0698 48.6098L31.8965 56.1651H38.7972L40.421 48.8087C40.647 48.6665 40.9554 48.5123 41.2328 48.411L47.5247 52.3875L52.3958 47.8146L48.3365 41.4523C48.4907 40.9745 48.574 40.6567 48.7425 40.2593L56.2521 38.6688Z" stroke="#1F50C3" stroke-width="2" stroke-miterlimit="10" stroke-linecap="round" stroke-linejoin="round"/>
  <circle cx="35.1438" cy="35.3894" r="8.82784" stroke="#1F50C3" stroke-width="2"/>
</svg>
